#!OML:ASF F:\VICON\USERDATA\INSTALL\Justin_Nancy\Justin_Nancy.ASF
:FULLY-SPECIFIED
:DEGREES
206
root 0.172656 17.6235 -3.40298 -1.81677 0.737099 -2.24159
lowerback 5.40044 1.42627 2.30132
upperback 0.562054 2.10879 2.70542
thorax -2.46801 1.04016 1.33733
lowerneck -15.4549 -4.87512 -10.1378
upperneck 23.0644 -5.73519 6.12388
head 10.4183 -2.82374 3.09282
rclavicle -2.35808e-014 -1.19271e-014
rhumerus -20.9272 -6.97463 -80.1271
rradius 38.7574
rwrist 2.2541
rhand -16.84 12.7044
rfingers 7.12502
rthumb 9.38973 -17.0664
lclavicle -2.35808e-014 -1.19271e-014
lhumerus -32.4805 10.7972 85.8707
lradius 22.7604
lwrist -14.0728
lhand -13.0799 27.5729
lfingers 7.12502
lthumb 13.0162 57.1468
rfemur -8.77933 4.46788 28.0409
rtibia 24.4072
rfoot -8.80744 -5.41203
rtoes 2.13134
lfemur -19.9759 0.846472 -17.6775
ltibia 48.8497
lfoot -17.8009 4.56532
ltoes 0.986288
207
root 0.182867 17.6038 -3.35232 -1.78507 0.569529 -2.24661
lowerback 5.28046 1.38196 2.32059
upperback 0.472762 2.04946 2.71536
thorax -2.49212 1.01011 1.34303
lowerneck -15.2504 -4.83234 -9.95513
upperneck 23.02 -5.68247 5.88799
head 10.3448 -2.81418 2.98708
rclavicle 1.82509e-014 -2.38542e-015
rhumerus -20.7745 -6.55933 -80.2759
rradius 38.9462
rwrist 1.75498
rhand -17.0245 13.269
rfingers 7.12502
rthumb 9.21166 -16.5098
lclavicle 1.82509e-014 -2.38542e-015
lhumerus -32.6087 11.1419 85.6151
lradius 22.2576
lwrist -14.5097
lhand -12.7862 27.4868
lfingers 7.12502
lthumb 13.2993 57.0425
rfemur -9.05317 4.48191 28.0437
rtibia 25.2252
rfoot -9.30967 -5.40725
rtoes 1.87867
lfemur -19.2389 0.398763 -17.7802
ltibia 46.6766
lfoot -17.8637 4.66514
ltoes 2.08861
208
root 0.194587 17.584 -3.29797 -1.77181 0.180889 -2.28099
lowerback 5.12693 1.40558 2.40881
upperback 0.433046 2.08081 2.71645
thorax -2.4442 1.02501 1.29597
lowerneck -15.1879 -4.79845 -9.84046
upperneck 23.0887 -5.64473 5.77056
head 10.3468 -2.80226 2.93277
rclavicle -2.73577e-014 -3.10104e-014
rhumerus -20.6372 -6.16296 -80.4582
rradius 39.1078
rwrist 1.27602
rhand -17.6869 14.3912
rfingers 7.12502
rthumb 8.57247 -15.4147
lclavicle -2.73577e-014 -3.10104e-014
lhumerus -32.7381 11.4431 85.4204
lradius 21.69
lwrist -14.5343
lhand -12.6678 28.0154
lfingers 7.12502
lthumb 13.4134 57.5635
rfemur -9.23697 4.68602 28.0774
rtibia 25.9787
rfoot -9.82051 -5.34009
rtoes 2.04958
lfemur -18.4102 -0.0182709 -17.8465
ltibia 44.5535
lfoot -17.8295 4.88457
ltoes 1.20966
209
root 0.209826 17.5661 -3.24223 -1.66571 -0.114348 -2.20109
lowerback 4.86727 1.41472 2.40549
upperback 0.40888 2.08213 2.7056
thorax -2.3233 1.0265 1.29294
lowerneck -15.3263 -4.74554 -9.8742
upperneck 23.1952 -5.57247 5.84945
head 10.4087 -2.76179 2.97661
rclavicle 1.04362e-015 -1.59028e-014
rhumerus -20.4973 -5.58047 -80.6355
rradius 39.593
rwrist 0.713594
rhand -17.5713 13.9492
rfingers 7.12502
rthumb 8.68406 -15.8522
lclavicle 1.04362e-015 -1.59028e-014
lhumerus -33.0032 11.8737 85.252
lradius 21.3355
lwrist -14.9268
lhand -12.6782 28.0511
lfingers 7.12502
lthumb 13.4033 57.5999
rfemur -9.48534 4.63698 27.9268
rtibia 26.6812
rfoot -10.4402 -5.07632
rtoes 1.90559
lfemur -17.624 -0.674981 -18.077
ltibia 42.5056
lfoot -17.8271 5.02381
ltoes -0.84227
210
root 0.221895 17.5447 -3.19318 -1.51179 -0.207758 -2.02339
lowerback 4.66275 1.33792 2.1687
upperback 0.337031 1.96236 2.74151
thorax -2.29115 0.969552 1.47449
lowerneck -15.5086 -4.69052 -10.0023
upperneck 23.3065 -5.47084 5.9409
head 10.4819 -2.71414 3.04473
rclavicle 1.51573e-015 2.22639e-014
rhumerus -20.3922 -5.01299 -80.7143
rradius 40.0036
rwrist 0.498431
rhand -17.0525 13.4805
rfingers 7.12502
rthumb 9.18465 -16.2995
lclavicle 1.51573e-015 2.22639e-014
lhumerus -33.3538 11.9551 85.3158
lradius 21.4419
lwrist -15.0493
lhand -12.3684 28.6126
lfingers 7.12502
lthumb 13.702 58.1415
rfemur -9.76368 4.52116 27.6832
rtibia 27.3168
rfoot -11.0011 -4.93872
rtoes 1.86572
lfemur -16.9604 -1.53432 -18.4034
ltibia 40.5431
lfoot -17.9904 5.04102
ltoes -4.93502
211
root 0.228195 17.5224 -3.14248 -1.49298 -0.340694 -2.1012
lowerback 4.58506 1.29869 2.18117
upperback 0.222517 1.91324 2.79714
thorax -2.36656 0.944652 1.52851
lowerneck -15.3763 -4.70852 -10.0008
upperneck 23.3351 -5.50201 5.89867
head 10.4686 -2.73614 3.02673
rclavicle -6.00081e-015 -1.03368e-014
rhumerus -20.659 -4.77385 -80.8169
rradius 40.5569
rwrist 0.373089
rhand -16.8283 13.6131
rfingers 7.12502
rthumb 9.40101 -16.1572
lclavicle -6.00081e-015 -1.03368e-014
lhumerus -33.7027 11.8155 85.3209
lradius 21.4202
lwrist -14.9921
lhand -12.1084 28.5779
lfingers 7.12502
lthumb 13.9526 58.0897
rfemur -9.81729 4.7356 27.7735
rtibia 27.8487
rfoot -11.4992 -5.02938
rtoes 2.52436
lfemur -16.2345 -2.26171 -18.4351
ltibia 38.7502
lfoot -17.7494 5.13555
ltoes -10.7311
212
root 0.236634 17.5039 -3.08633 -1.5813 -0.396167 -2.24945
lowerback 4.49394 1.19593 2.29649
upperback 0.188592 1.78147 2.87096
thorax -2.34781 0.878141 1.55028
lowerneck -15.3004 -4.71033 -9.94236
upperneck 23.2992 -5.50353 5.8049
head 10.4365 -2.74394 2.98326
rclavicle 1.87665e-014 1.90833e-014
rhumerus -20.7162 -4.47203 -80.9748
rradius 40.8692
rwrist 0.22582
rhand -16.8866 13.8401
rfingers 7.12502
rthumb 9.34474 -15.9328
lclavicle 1.87665e-014 1.90833e-014
lhumerus -33.9535 11.7442 85.3162
lradius 21.2289
lwrist -14.6784
lhand -12.0918 28.6489
lfingers 7.12502
lthumb 13.9685 58.1597
rfemur -9.70076 4.8466 27.9427
rtibia 28.2641
rfoot -11.9485 -5.23246
rtoes 2.59648
lfemur -15.4564 -2.88576 -18.4195
ltibia 37.2385
lfoot -17.1124 5.18192
ltoes -3.65873
213
root 0.24923 17.4943 -3.0335 -1.50027 -0.256471 -2.21048
lowerback 4.15163 1.05794 2.27344
upperback 0.247093 1.57974 2.88268
thorax -2.09427 0.779458 1.59512
lowerneck -15.4722 -4.72306 -9.92084
upperneck 23.1126 -5.50317 5.80672
head 10.4009 -2.73734 2.97554
rclavicle -8.32411e-015 -1.59028e-014
rhumerus -20.2971 -4.08368 -81.1181
rradius 40.844
rwrist 0.00116939
rhand -17.201 13.7609
rfingers 7.12502
rthumb 9.04139 -16.0253
lclavicle -8.32411e-015 -1.59028e-014
lhumerus -33.8268 11.9031 85.3009
lradius 20.8905
lwrist -14.9179
lhand -12.3212 28.0271
lfingers 7.12502
lthumb 13.7475 57.553
rfemur -9.73835 4.5931 27.8436
rtibia 28.5517
rfoot -12.3473 -5.20159
rtoes 2.20129
lfemur -14.9579 -3.38269 -18.6439
ltibia 36.0796
lfoot -16.5488 5.42957
ltoes 0.00672964
214
root 0.259938 17.4868 -2.99573 -1.27943 -0.362087 -2.17482
lowerback 3.86681 1.01784 2.20207
upperback 0.198805 1.51351 2.9142
thorax -1.98614 0.747789 1.67615
lowerneck -15.5012 -4.748 -10.0131
upperneck 22.9967 -5.53626 5.91954
head 10.3737 -2.74644 3.02496
rclavicle 1.31695e-015 2.14687e-014
rhumerus -20.0531 -3.77213 -81.209
rradius 40.9577
rwrist -0.138007
rhand -17.266 13.6474
rfingers 7.12502
rthumb 8.97869 -16.1415
lclavicle 1.31695e-015 2.14687e-014
lhumerus -33.6111 12.2768 85.2365
lradius 20.3953
lwrist -15.5389
lhand -12.2726 27.1572
lfingers 7.12502
lthumb 13.7943 56.6799
rfemur -9.95018 4.51515 27.7525
rtibia 28.7069
rfoot -12.5003 -5.03571
rtoes 1.56216
lfemur -14.6878 -3.60418 -18.8646
ltibia 35.2995
lfoot -15.8868 6.64225
ltoes 0.866448
215
root 0.270266 17.4819 -2.95824 -1.09265 -0.418095 -2.10277
lowerback 3.74201 0.96993 2.07798
upperback 0.0269252 1.44568 2.9133
thorax -2.09502 0.714531 1.74921
lowerneck -15.5567 -4.81111 -9.87449
upperneck 23.1975 -5.6518 5.86039
head 10.4614 -2.79522 2.96538
rclavicle -7.93896e-015 -3.81667e-014
rhumerus -20.1437 -3.49982 -81.2952
rradius 41.2252
rwrist -0.366323
rhand -17.249 13.9906
rfingers 7.12502
rthumb 8.9951 -15.7976
lclavicle -7.93896e-015 -3.81667e-014
lhumerus -33.9089 12.3172 85.2049
lradius 20.403
lwrist -15.6585
lhand -12.0072 27.3616
lfingers 7.12502
lthumb 14.05 56.8667
rfemur -10.0519 4.64674 27.6307
rtibia 28.7797
rfoot -12.7588 -5.10668
rtoes 1.63767
lfemur -14.3731 -3.70443 -19.1393
ltibia 34.8353
lfoot -15.3511 8.26967
ltoes 2.50595
216
root 0.276747 17.4859 -2.91476 -0.932766 -0.246327 -2.10205
lowerback 3.6383 0.85531 1.99588
upperback -0.150416 1.29243 2.93552
thorax -2.21916 0.638555 1.82695
lowerneck -15.7054 -4.91404 -9.83236
upperneck 23.4464 -5.80904 5.87086
head 10.5941 -2.86205 2.93986
rclavicle -2.32951e-016 1.03368e-014
rhumerus -20.2521 -3.36523 -81.3574
rradius 41.3718
rwrist -0.438701
rhand -17.1419 14.3216
rfingers 7.12502
rthumb 9.09845 -15.4621
lclavicle -2.32951e-016 1.03368e-014
lhumerus -34.3303 12.1812 85.2091
lradius 20.5699
lwrist -15.6611
lhand -11.8454 27.8225
lfingers 7.12502
lthumb 14.206 57.3168
rfemur -10.0709 4.76187 27.6164
rtibia 28.8
rfoot -12.881 -5.37028
rtoes 1.95495
lfemur -14.0307 -3.79717 -19.3148
ltibia 34.6056
lfoot -15.6057 8.88994
ltoes 3.5347
217
root 0.283013 17.4895 -2.87282 -0.882081 0.0140682 -2.10452
lowerback 3.52878 0.693983 1.91923
upperback -0.250351 1.07378 2.94782
thorax -2.25821 0.530342 1.89549
lowerneck -15.6829 -5.00091 -9.88057
upperneck 23.4814 -5.95728 5.99296
head 10.6216 -2.92111 2.97104
rclavicle -2.92509e-015 -1.66979e-014
rhumerus -20.3133 -3.23033 -81.4907
rradius 41.4135
rwrist -0.451291
rhand -17.3139 14.5423
rfingers 7.12502
rthumb 8.93248 -15.2486
lclavicle -2.92509e-015 -1.66979e-014
lhumerus -34.512 11.9215 85.2744
lradius 20.5899
lwrist -15.685
lhand -11.5167 28.3371
lfingers 7.12502
lthumb 14.5227 57.8088
rfemur -9.97217 4.71989 27.5961
rtibia 28.7576
rfoot -12.9346 -5.54038
rtoes 2.08874
lfemur -13.6816 -4.0332 -19.4702
ltibia 34.5247
lfoot -16.3571 8.36403
ltoes 3.85452
